Coordinates
version=1
nRows=65
nColumns=12
inDegrees=yes

Units are S.I. units (second, meters, Newtons, ...)
Angles are in degrees

endheader
time	SC_y	SC_z	SC_x	AC_y	AC_z	AC_x	GH_y	GH_z	GH_yy	EL_x	PS_y
       0.0              -45.04          22.45          3.639          43.59          8.459          10.27         -16.03          72.61         -101.1          33.67          27.27
   0.01617              -45.04          22.45          3.644          43.59          8.457          10.27         -16.02          72.62         -101.1          33.68          27.28
   0.03234              -45.04          22.45          3.649          43.59          8.456          10.27         -16.01          72.62         -101.0          33.69          27.28
    0.0485              -45.04          22.45          3.654          43.59          8.454          10.27          -16.0          72.62         -101.0           33.7          27.29
   0.06467              -45.03          22.45           3.66          43.59          8.453          10.27         -15.99          72.62         -100.9          33.71          27.29
   0.08084              -45.03          22.45          3.666          43.59          8.451          10.27         -15.97          72.62         -100.9          33.71           27.3
   0.09701              -45.03          22.46          3.672          43.58          8.449          10.27         -15.96          72.63         -100.8          33.72          27.31
    0.1132              -45.03          22.46          3.679          43.58          8.447          10.27         -15.95          72.63         -100.8          33.73          27.31
    0.1293              -45.02          22.46          3.686          43.58          8.445          10.27         -15.93          72.63         -100.7          33.75          27.32
    0.1455              -45.02          22.46          3.694          43.58          8.442          10.27         -15.91          72.63         -100.7          33.76          27.33
    0.1617              -45.02          22.46          3.703          43.57           8.44          10.27         -15.89          72.64         -100.6          33.77          27.34
    0.1778              -45.01          22.47          3.712          43.57          8.437          10.27         -15.88          72.64         -100.5          33.78          27.34
     0.194              -45.01          22.47          3.722          43.57          8.434          10.27         -15.85          72.64         -100.4           33.8          27.35
    0.2102               -45.0          22.47          3.732          43.56          8.431          10.27         -15.83          72.65         -100.3          33.82          27.36
    0.2263               -45.0          22.48          3.744          43.56          8.428          10.27         -15.81          72.65         -100.2          33.83          27.38
    0.2425              -44.99          22.48          3.756          43.55          8.424          10.28         -15.78          72.65         -100.1          33.85          27.39
    0.2587              -44.99          22.48           3.77          43.55           8.42          10.28         -15.75          72.66         -100.0          33.87           27.4
    0.2749              -44.98          22.49          3.785          43.55          8.416          10.28         -15.72          72.66          -99.9           33.9          27.41
     0.291              -44.97          22.49          3.801          43.54          8.411          10.28         -15.68          72.67         -99.76          33.92          27.43
    0.3072              -44.96           22.5          3.818          43.53          8.406          10.28         -15.65          72.67         -99.62          33.95          27.45
    0.3234              -44.96           22.5          3.838          43.53            8.4          10.28         -15.61          72.68         -99.45          33.98          27.47
    0.3395              -44.95          22.51          3.859          43.52          8.394          10.28         -15.56          72.69         -99.28          34.01          27.49
    0.3557              -44.94          22.52          3.883          43.51          8.387          10.28         -15.51          72.69         -99.08          34.05          27.51
    0.3719              -44.93          22.52          3.909           43.5          8.379          10.29         -15.45           72.7         -98.86          34.09          27.54
     0.388              -44.91          22.53          3.938          43.49          8.371          10.29         -15.39          72.71         -98.62          34.13          27.56
    0.4042               -44.9          22.54           3.97          43.48          8.361          10.29         -15.32          72.72         -98.35          34.18           27.6
    0.4204              -44.88          22.55          4.007          43.47           8.35          10.29         -15.24          72.74         -98.05          34.23          27.63
    0.4365              -44.86          22.56          4.047          43.46          8.338           10.3         -15.16          72.75          -97.7           34.3          27.67
    0.4527              -44.84          22.57          4.094          43.44          8.325           10.3         -15.06          72.76         -97.32          34.37          27.72
    0.4689              -44.82          22.59          4.146          43.43          8.309           10.3         -14.95          72.78         -96.88          34.45          27.77
     0.485               -44.8          22.61          4.206          43.41          8.292          10.31         -14.82           72.8         -96.38          34.54          27.82
    0.5012              -44.77          22.63          4.274          43.38          8.271          10.31         -14.67          72.82         -95.81          34.64          27.89
    0.5174              -44.73          22.65          4.354          43.36          8.248          10.32          -14.5          72.85         -95.15          34.76          27.97
    0.5335              -44.69          22.67          4.446          43.33          8.221          10.32          -14.3          72.88         -94.38           34.9          28.06
    0.5497              -44.64          22.71          4.553          43.29          8.189          10.33         -14.07          72.91         -93.48          35.07          28.16
    0.5659              -44.59          22.74           4.68          43.25          8.152          10.34          -13.8          72.96         -92.42          35.26          28.29
     0.582              -44.52          22.78          4.831           43.2          8.107          10.35         -13.48          73.01         -91.16          35.49          28.43
    0.5982              -44.44          22.84          5.012          43.14          8.054          10.36         -13.09          73.07         -89.65          35.77          28.61
    0.6144              -44.35           22.9          5.231          43.06          7.989          10.38         -12.62          73.14         -87.83           36.1          28.82
    0.6305              -44.23          22.97          5.498          42.97           7.91          10.39         -12.05          73.23          -85.6          36.51          29.08
    0.6467              -44.09          23.07          5.828          42.86          7.813          10.42         -11.34          73.33         -82.84          37.02           29.4
    0.6629              -43.91          23.18           6.24          42.73          7.692          10.44         -10.46          73.47         -79.41          37.64           29.8
     0.679              -43.68          23.33          6.758          42.56          7.539          10.48         -9.351          73.64         -75.08          38.43          30.31
    0.6952               -43.4          23.52          7.417          42.34          7.345          10.52          -7.94          73.86         -69.58          39.44          30.95
    0.7114              -43.03          23.76           8.26          42.05          7.096          10.58         -6.134          74.13         -62.55          40.73          31.77
    0.7276              -42.56          24.06          9.343          41.69          6.777          10.65         -3.816          74.49         -53.51          42.38          32.82
    0.7437              -41.95          24.46          10.73          41.23           6.37          10.75        -0.8558          74.94         -41.98          44.49          34.16
    0.7599               -41.2          24.95          12.46          40.66          5.857          10.86          2.867          75.51         -27.47          47.14          35.85
    0.7761              -40.27          25.55          14.58          39.95          5.233          11.01          7.403          76.21         -9.794          50.38          37.91
    0.7922               -39.2          26.25          17.04          39.13          4.509          11.17          12.66          77.01           10.7          54.12           40.3
    0.8084              -38.04           27.0           19.7          38.25          3.725          11.35          18.36          77.89          32.88          58.18          42.88
    0.8246              -36.88          27.76          22.35          37.36          2.941          11.53          24.05          78.76          55.07          62.24          45.47
    0.8407              -35.81          28.45          24.81          36.54          2.217           11.7          29.31          79.57          75.56          65.99          47.86
    0.8569              -34.89          29.06          26.93          35.84          1.593          11.84          33.84          80.26          93.24          69.22          49.92
    0.8731              -34.13          29.55          28.67          35.26           1.08          11.96          37.57          80.83          107.7          71.87          51.61
    0.8892              -33.53          29.94          30.05           34.8         0.6726          12.05          40.53          81.29          119.3          73.98          52.95
    0.9054              -33.06          30.25          31.13          34.44         0.3535          12.12          42.85          81.64          128.3          75.63           54.0
    0.9216              -32.69          30.49          31.97          34.16         0.1049          12.18          44.65          81.92          135.4          76.92          54.82
    0.9377               -32.4          30.67          32.63          33.94       -0.08938          12.22          46.06          82.14          140.9          77.93          55.46
    0.9539              -32.18          30.82          33.15          33.76        -0.2422          12.26          47.17          82.31          145.2          78.72          55.97
    0.9701               -32.0          30.94          33.56          33.63        -0.3635          12.29          48.05          82.44          148.6          79.35          56.37
    0.9862              -31.85          31.03          33.89          33.52        -0.4608          12.31          48.76          82.55          151.4          79.85          56.69
     1.002              -31.74          31.11          34.16          33.43        -0.5396          12.33          49.33          82.64          153.6          80.26          56.95
     1.019              -31.64          31.17          34.38          33.36        -0.6041          12.34           49.8          82.71          155.4          80.59          57.16
     1.035              -31.56          31.22          34.56           33.3        -0.6574          12.35          50.19          82.77          156.9          80.87          57.34
